<svg width="90" height="90" viewBox="0 0 90 90" fill="none" xmlns="http://www.w3.org/2000/svg">
<g clip-path="url(#clip0_693_18)">
<path fill-rule="evenodd" clip-rule="evenodd" d="M76.8215 13.1805C59.2475 -4.3935 30.7555 -4.3935 13.1805 13.1805C-4.3935 30.7545 -4.3935 59.2465 13.1805 76.8215C30.7545 94.3955 59.2465 94.3955 76.8215 76.8215C94.3955 59.2475 94.3955 30.7555 76.8215 13.1805ZM43.8055 15.993C44.9617 15.4891 46.2508 15.7664 47.1219 16.6258L65.6219 35.1218C68.4149 37.9148 64.1727 42.157 61.3797 39.364L48.0007 25.989V71.255C48.0007 75.2042 42.0007 75.2042 42.0007 71.255V25.989L28.6217 39.368C25.8287 42.161 21.5865 37.9188 24.3795 35.1258L42.9305 16.5748L43.8055 15.993Z" fill="black"/>
</g>
<defs>
<clipPath id="clip0_693_18">
<rect width="90" height="90" fill="white"/>
</clipPath>
</defs>
</svg>
